<svg width="17" height="17" viewBox="0 0 17 17" fill="none" xmlns="http://www.w3.org/2000/svg">
<path fill-rule="evenodd" clip-rule="evenodd" d="M15.2612 5.99048C16.2917 6.51667 17 7.62571 17 8.90476V8.90557C17 10.115 16.3646 11.1698 15.4272 11.726C15.4442 11.8628 15.4539 12.0004 15.4539 12.1412C15.4539 13.9303 14.0713 15.3793 12.3633 15.3793C11.982 15.3793 11.6177 15.3105 11.2818 15.1786C10.7807 16.2585 9.72354 17 8.4996 17C7.27646 17 6.21928 16.2585 5.71739 15.1786C5.38146 15.3113 5.01719 15.381 4.63673 15.381C2.92872 15.381 1.54612 13.9319 1.54612 12.1429C1.54612 12.002 1.55583 11.8644 1.57202 11.7268C0.633017 11.1698 0 10.115 0 8.90476C0 7.6241 0.7083 6.51667 1.73796 5.99048C1.6133 5.63752 1.54612 5.25705 1.54612 4.85714C1.54612 3.0681 2.92872 1.61905 4.63673 1.61905C5.01719 1.61905 5.38227 1.68786 5.7182 1.82143C6.22089 0.742333 7.27808 0 8.5004 0C9.72273 0 10.7815 0.740714 11.2818 1.82305C11.6185 1.68867 11.9828 1.62067 12.3633 1.62067C14.0697 1.62067 15.4539 3.0681 15.4539 4.85714C15.4539 5.25786 15.3859 5.63833 15.2612 5.99048ZM8.13614 11.4677L11.6444 6.20581V6.205C11.8306 5.92652 11.7545 5.54929 11.4745 5.3631C11.196 5.17771 10.8188 5.25138 10.6326 5.53067L7.53631 10.1773L6.10352 8.7469C5.86715 8.5089 5.48264 8.51052 5.24546 8.7469C5.00829 8.98329 5.00829 9.36781 5.24546 9.605L7.20037 11.56L7.29346 11.6361C7.39708 11.7057 7.51445 11.7381 7.63021 11.7381C7.82691 11.7381 8.01876 11.6434 8.13614 11.4677Z" fill="#1DA1F2"/>
</svg>
