<svg width="14" height="13" viewBox="0 0 14 13" fill="none" xmlns="http://www.w3.org/2000/svg">
<path fill-rule="evenodd" clip-rule="evenodd" d="M1.43182 0H12.5682C13.3592 0 14 0.65455 14 1.4625V11.5375C14 12.3455 13.3592 13 12.5682 13H1.43182C0.640818 13 0 12.3455 0 11.5375V1.4625C0 0.65455 0.640818 0 1.43182 0ZM9.94318 8.04635C10.2505 8.04635 10.5 7.79155 10.5 7.4776L10.4987 7.47565V3.80315C10.4987 3.48855 10.2493 3.23505 9.94191 3.23505H6.34645C6.03909 3.23505 5.78964 3.48985 5.78964 3.8038C5.78964 4.11775 6.03909 4.3732 6.34582 4.3732H8.59855L3.79591 9.27875C3.57827 9.5004 3.57827 9.8605 3.79591 10.0828C3.90473 10.1939 4.046 10.2499 4.18918 10.2499C4.33236 10.2499 4.47555 10.1939 4.58373 10.0835L9.38636 5.17855V7.47695C9.38636 7.7909 9.63582 8.04635 9.94318 8.04635Z" fill="#6E7F8D"/>
</svg>
