<svg width="13" height="13" viewBox="0 0 13 13" fill="none" xmlns="http://www.w3.org/2000/svg">
<path d="M6.58517 7.99876C6.54214 7.99876 6.49783 7.99257 6.4548 7.98205C5.72906 7.7852 5.10801 7.37169 4.65973 6.78608C4.12538 6.08968 3.90445 5.23356 4.03803 4.3762C4.17162 3.51885 4.64303 2.76363 5.36619 2.24798L7.63332 0.633551C9.12461 -0.428703 11.2363 -0.124141 12.341 1.31448C12.874 2.01213 13.0956 2.86825 12.962 3.7256C12.8284 4.58296 12.3564 5.33817 11.6326 5.85383L10.6821 6.53104C10.4682 6.68332 10.1657 6.63937 10.0077 6.43324C9.8497 6.22648 9.89466 5.93554 10.1092 5.78326L11.0597 5.10542C11.5754 4.73895 11.912 4.19978 12.0076 3.5888C12.1027 2.9772 11.9447 2.36621 11.5645 1.86913C10.7777 0.844021 9.2704 0.624885 8.20556 1.38381L5.93843 2.99824C5.42335 3.36533 5.08682 3.9045 4.99112 4.51486C4.89479 5.1277 5.05342 5.73745 5.43427 6.23453C5.75411 6.65237 6.19662 6.94641 6.71362 7.08693C6.97052 7.1575 7.12016 7.41378 7.04759 7.66139C6.9885 7.86567 6.79455 8 6.58389 8L6.58517 7.99876Z" fill="#657786"/>
<path d="M3.37399 13C2.33974 13 1.32026 12.5451 0.659878 11.6847C0.125407 10.9871 -0.0955767 10.1311 0.0380411 9.27439C0.171659 8.41773 0.643818 7.66197 1.3678 7.14636L2.31725 6.4692C2.53181 6.31756 2.83438 6.36088 2.99177 6.567C3.14915 6.77312 3.10547 7.06466 2.89091 7.21692L1.94017 7.8947C1.42433 8.26175 1.08835 8.80088 0.992638 9.41119C0.897563 10.024 1.05495 10.6337 1.43589 11.1307C2.22282 12.1563 3.72923 12.3748 4.79561 11.6166L7.06197 10.0023C8.12706 9.24407 8.35318 7.79257 7.56625 6.76507C7.24634 6.34789 6.80373 6.05325 6.2866 5.91337C6.02964 5.84342 5.87997 5.58717 5.95256 5.33958C6.0245 5.09199 6.29174 4.94962 6.54741 5.01647C7.27332 5.21331 7.89387 5.62678 8.34226 6.21233C9.44525 7.65083 9.12855 9.68601 7.63563 10.7494L5.36798 12.3637C4.76863 12.7926 4.06842 12.9988 3.37335 12.9988L3.37399 13Z" fill="#657786"/>
</svg>
